<?xml version="1.0" encoding="UTF-8" standalone="no"?>
<!DOCTYPE svg PUBLIC "-//W3C//DTD SVG 1.1//EN"
 "http://www.w3.org/Graphics/SVG/1.1/DTD/svg11.dtd">
<!-- Generated by graphviz version 5.0.0 (20220707.1540)
 -->
<!-- Title: dependencies Pages: 1 -->
<svg width="490pt" height="247pt"
 viewBox="0.00 0.00 490.00 246.80" xmlns="http://www.w3.org/2000/svg" xmlns:xlink="http://www.w3.org/1999/xlink">
<g id="graph0" class="graph" transform="scale(1 1) rotate(0) translate(4 242.8)">
<title>dependencies</title>
<polygon fill="white" stroke="transparent" points="-4,4 -4,-242.8 486,-242.8 486,4 -4,4"/>
<text text-anchor="middle" x="241" y="-8.2" font-family="sans-serif" font-size="14.00">dependencies</text>
<g id="clust1" class="cluster">
<title>cluster_UserCoreModule</title>
<polygon fill="none" stroke="black" stroke-dasharray="1,5" points="8,-32.8 8,-230.8 474,-230.8 474,-32.8 8,-32.8"/>
</g>
<g id="clust4" class="cluster">
<title>cluster_UserCoreModule_exports</title>
<polygon fill="none" stroke="black" points="58,-170.8 58,-222.8 410,-222.8 410,-170.8 58,-170.8"/>
</g>
<g id="clust6" class="cluster">
<title>cluster_UserCoreModule_providers</title>
<polygon fill="none" stroke="black" points="16,-40.8 16,-92.8 466,-92.8 466,-40.8 16,-40.8"/>
</g>
<!-- PermissionService  -->
<g id="node1" class="node">
<title>PermissionService </title>
<polygon fill="#fb8072" stroke="black" points="401.71,-214.8 278.29,-214.8 278.29,-178.8 401.71,-178.8 401.71,-214.8"/>
<text text-anchor="middle" x="340" y="-192.6" font-family="Times,serif" font-size="14.00">PermissionService </text>
</g>
<!-- RoleService  -->
<g id="node2" class="node">
<title>RoleService </title>
<polygon fill="#fb8072" stroke="black" points="259.92,-214.8 172.08,-214.8 172.08,-178.8 259.92,-178.8 259.92,-214.8"/>
<text text-anchor="middle" x="216" y="-192.6" font-family="Times,serif" font-size="14.00">RoleService </text>
</g>
<!-- UserService  -->
<g id="node3" class="node">
<title>UserService </title>
<polygon fill="#fb8072" stroke="black" points="153.91,-214.8 66.09,-214.8 66.09,-178.8 153.91,-178.8 153.91,-214.8"/>
<text text-anchor="middle" x="110" y="-192.6" font-family="Times,serif" font-size="14.00">UserService </text>
</g>
<!-- UserCoreModule -->
<g id="node4" class="node">
<title>UserCoreModule</title>
<polygon fill="#8dd3c7" stroke="black" points="272.7,-149.8 269.7,-153.8 248.7,-153.8 245.7,-149.8 159.3,-149.8 159.3,-113.8 272.7,-113.8 272.7,-149.8"/>
<text text-anchor="middle" x="216" y="-127.6" font-family="Times,serif" font-size="14.00">UserCoreModule</text>
</g>
<!-- UserCoreModule&#45;&gt;PermissionService  -->
<g id="edge1" class="edge">
<title>UserCoreModule&#45;&gt;PermissionService </title>
<path fill="none" stroke="black" stroke-dasharray="5,2" d="M266.28,-149.91C266.28,-169.14 266.28,-196.8 266.28,-196.8 266.28,-196.8 268.12,-196.8 268.12,-196.8"/>
<polygon fill="black" stroke="black" points="268.12,-200.3 278.12,-196.8 268.12,-193.3 268.12,-200.3"/>
</g>
<!-- UserCoreModule&#45;&gt;RoleService  -->
<g id="edge2" class="edge">
<title>UserCoreModule&#45;&gt;RoleService </title>
<path fill="none" stroke="black" stroke-dasharray="5,2" d="M216,-149.91C216,-149.91 216,-168.79 216,-168.79"/>
<polygon fill="black" stroke="black" points="212.5,-168.79 216,-178.79 219.5,-168.79 212.5,-168.79"/>
</g>
<!-- UserCoreModule&#45;&gt;UserService  -->
<g id="edge3" class="edge">
<title>UserCoreModule&#45;&gt;UserService </title>
<path fill="none" stroke="black" stroke-dasharray="5,2" d="M165.72,-149.91C165.72,-169.14 165.72,-196.8 165.72,-196.8 165.72,-196.8 164.17,-196.8 164.17,-196.8"/>
<polygon fill="black" stroke="black" points="164.17,-193.3 154.17,-196.8 164.17,-200.3 164.17,-193.3"/>
</g>
<!-- PermissionService -->
<g id="node5" class="node">
<title>PermissionService</title>
<ellipse fill="#fdb462" stroke="black" cx="375" cy="-66.8" rx="82.83" ry="18"/>
<text text-anchor="middle" x="375" y="-62.6" font-family="Times,serif" font-size="14.00">PermissionService</text>
</g>
<!-- PermissionService&#45;&gt;UserCoreModule -->
<g id="edge4" class="edge">
<title>PermissionService&#45;&gt;UserCoreModule</title>
<path fill="none" stroke="black" d="M346.97,-83.88C346.97,-103.14 346.97,-131.8 346.97,-131.8 346.97,-131.8 282.68,-131.8 282.68,-131.8"/>
<polygon fill="black" stroke="black" points="282.68,-128.3 272.68,-131.8 282.68,-135.3 282.68,-128.3"/>
</g>
<!-- RoleService -->
<g id="node6" class="node">
<title>RoleService</title>
<ellipse fill="#fdb462" stroke="black" cx="216" cy="-66.8" rx="58.46" ry="18"/>
<text text-anchor="middle" x="216" y="-62.6" font-family="Times,serif" font-size="14.00">RoleService</text>
</g>
<!-- RoleService&#45;&gt;UserCoreModule -->
<g id="edge5" class="edge">
<title>RoleService&#45;&gt;UserCoreModule</title>
<path fill="none" stroke="black" d="M216,-84.91C216,-84.91 216,-103.79 216,-103.79"/>
<polygon fill="black" stroke="black" points="212.5,-103.79 216,-113.79 219.5,-103.79 212.5,-103.79"/>
</g>
<!-- UserService -->
<g id="node7" class="node">
<title>UserService</title>
<ellipse fill="#fdb462" stroke="black" cx="82" cy="-66.8" rx="58.46" ry="18"/>
<text text-anchor="middle" x="82" y="-62.6" font-family="Times,serif" font-size="14.00">UserService</text>
</g>
<!-- UserService&#45;&gt;UserCoreModule -->
<g id="edge6" class="edge">
<title>UserService&#45;&gt;UserCoreModule</title>
<path fill="none" stroke="black" d="M103.14,-83.88C103.14,-103.14 103.14,-131.8 103.14,-131.8 103.14,-131.8 149.24,-131.8 149.24,-131.8"/>
<polygon fill="black" stroke="black" points="149.24,-135.3 159.24,-131.8 149.24,-128.3 149.24,-135.3"/>
</g>
</g>
</svg>
