<?xml version="1.0" encoding="UTF-8" standalone="no"?>
<!DOCTYPE svg PUBLIC "-//W3C//DTD SVG 1.1//EN"
 "http://www.w3.org/Graphics/SVG/1.1/DTD/svg11.dtd">
<!-- Generated by graphviz version 5.0.0 (20220707.1540)
 -->
<!-- Title: dependencies Pages: 1 -->
<svg width="490pt" height="247pt"
 viewBox="0.00 0.00 490.00 246.80" xmlns="http://www.w3.org/2000/svg" xmlns:xlink="http://www.w3.org/1999/xlink">
<g id="graph0" class="graph" transform="scale(1 1) rotate(0) translate(4 242.8)">
<title>dependencies</title>
<polygon fill="white" stroke="transparent" points="-4,4 -4,-242.8 486,-242.8 486,4 -4,4"/>
<text text-anchor="middle" x="241" y="-8.2" font-family="sans-serif" font-size="14.00">dependencies</text>
<g id="clust1" class="cluster">
<title>cluster_UserModule</title>
<polygon fill="none" stroke="black" stroke-dasharray="1,5" points="8,-32.8 8,-230.8 474,-230.8 474,-32.8 8,-32.8"/>
</g>
<g id="clust6" class="cluster">
<title>cluster_UserModule_providers</title>
<polygon fill="none" stroke="black" points="16,-40.8 16,-92.8 466,-92.8 466,-40.8 16,-40.8"/>
</g>
<g id="clust4" class="cluster">
<title>cluster_UserModule_exports</title>
<polygon fill="none" stroke="black" points="58,-170.8 58,-222.8 410,-222.8 410,-170.8 58,-170.8"/>
</g>
<!-- PermissionService  -->
<g id="node1" class="node">
<title>PermissionService </title>
<polygon fill="#fb8072" stroke="black" points="401.71,-214.8 278.29,-214.8 278.29,-178.8 401.71,-178.8 401.71,-214.8"/>
<text text-anchor="middle" x="340" y="-192.6" font-family="Times,serif" font-size="14.00">PermissionService </text>
</g>
<!-- RoleService  -->
<g id="node2" class="node">
<title>RoleService </title>
<polygon fill="#fb8072" stroke="black" points="259.92,-214.8 172.08,-214.8 172.08,-178.8 259.92,-178.8 259.92,-214.8"/>
<text text-anchor="middle" x="216" y="-192.6" font-family="Times,serif" font-size="14.00">RoleService </text>
</g>
<!-- UserService  -->
<g id="node3" class="node">
<title>UserService </title>
<polygon fill="#fb8072" stroke="black" points="153.91,-214.8 66.09,-214.8 66.09,-178.8 153.91,-178.8 153.91,-214.8"/>
<text text-anchor="middle" x="110" y="-192.6" font-family="Times,serif" font-size="14.00">UserService </text>
</g>
<!-- UserModule -->
<g id="node4" class="node">
<title>UserModule</title>
<polygon fill="#8dd3c7" stroke="black" points="258.99,-149.8 255.99,-153.8 234.99,-153.8 231.99,-149.8 173.01,-149.8 173.01,-113.8 258.99,-113.8 258.99,-149.8"/>
<text text-anchor="middle" x="216" y="-127.6" font-family="Times,serif" font-size="14.00">UserModule</text>
</g>
<!-- UserModule&#45;&gt;PermissionService  -->
<g id="edge1" class="edge">
<title>UserModule&#45;&gt;PermissionService </title>
<path fill="none" stroke="black" stroke-dasharray="5,2" d="M259.38,-137.8C273.27,-137.8 285.11,-137.8 285.11,-137.8 285.11,-137.8 285.11,-168.78 285.11,-168.78"/>
<polygon fill="black" stroke="black" points="281.62,-168.78 285.11,-178.78 288.62,-168.78 281.62,-168.78"/>
</g>
<!-- UserModule&#45;&gt;RoleService  -->
<g id="edge2" class="edge">
<title>UserModule&#45;&gt;RoleService </title>
<path fill="none" stroke="black" stroke-dasharray="5,2" d="M216,-149.91C216,-149.91 216,-168.79 216,-168.79"/>
<polygon fill="black" stroke="black" points="212.5,-168.79 216,-178.79 219.5,-168.79 212.5,-168.79"/>
</g>
<!-- UserModule&#45;&gt;UserService  -->
<g id="edge3" class="edge">
<title>UserModule&#45;&gt;UserService </title>
<path fill="none" stroke="black" stroke-dasharray="5,2" d="M172.75,-137.8C158.91,-137.8 147.09,-137.8 147.09,-137.8 147.09,-137.8 147.09,-168.78 147.09,-168.78"/>
<polygon fill="black" stroke="black" points="143.59,-168.78 147.09,-178.78 150.59,-168.78 143.59,-168.78"/>
</g>
<!-- PermissionService -->
<g id="node5" class="node">
<title>PermissionService</title>
<ellipse fill="#fdb462" stroke="black" cx="375" cy="-66.8" rx="82.83" ry="18"/>
<text text-anchor="middle" x="375" y="-62.6" font-family="Times,serif" font-size="14.00">PermissionService</text>
</g>
<!-- PermissionService&#45;&gt;UserModule -->
<g id="edge4" class="edge">
<title>PermissionService&#45;&gt;UserModule</title>
<path fill="none" stroke="black" d="M346.97,-83.87C346.97,-101.29 346.97,-125.8 346.97,-125.8 346.97,-125.8 269.25,-125.8 269.25,-125.8"/>
<polygon fill="black" stroke="black" points="269.25,-122.3 259.25,-125.8 269.25,-129.3 269.25,-122.3"/>
</g>
<!-- RoleService -->
<g id="node6" class="node">
<title>RoleService</title>
<ellipse fill="#fdb462" stroke="black" cx="216" cy="-66.8" rx="58.46" ry="18"/>
<text text-anchor="middle" x="216" y="-62.6" font-family="Times,serif" font-size="14.00">RoleService</text>
</g>
<!-- RoleService&#45;&gt;UserModule -->
<g id="edge5" class="edge">
<title>RoleService&#45;&gt;UserModule</title>
<path fill="none" stroke="black" d="M216,-84.91C216,-84.91 216,-103.79 216,-103.79"/>
<polygon fill="black" stroke="black" points="212.5,-103.79 216,-113.79 219.5,-103.79 212.5,-103.79"/>
</g>
<!-- UserService -->
<g id="node7" class="node">
<title>UserService</title>
<ellipse fill="#fdb462" stroke="black" cx="82" cy="-66.8" rx="58.46" ry="18"/>
<text text-anchor="middle" x="82" y="-62.6" font-family="Times,serif" font-size="14.00">UserService</text>
</g>
<!-- UserService&#45;&gt;UserModule -->
<g id="edge6" class="edge">
<title>UserService&#45;&gt;UserModule</title>
<path fill="none" stroke="black" d="M103.14,-83.87C103.14,-101.29 103.14,-125.8 103.14,-125.8 103.14,-125.8 163.01,-125.8 163.01,-125.8"/>
<polygon fill="black" stroke="black" points="163.01,-129.3 173.01,-125.8 163.01,-122.3 163.01,-129.3"/>
</g>
</g>
</svg>
