<?xml version="1.0" encoding="UTF-8" standalone="no"?>
<!DOCTYPE svg PUBLIC "-//W3C//DTD SVG 1.1//EN"
 "http://www.w3.org/Graphics/SVG/1.1/DTD/svg11.dtd">
<!-- Generated by graphviz version 5.0.0 (20220707.1540)
 -->
<!-- Title: dependencies Pages: 1 -->
<svg width="872pt" height="247pt"
 viewBox="0.00 0.00 872.00 246.80" xmlns="http://www.w3.org/2000/svg" xmlns:xlink="http://www.w3.org/1999/xlink">
<g id="graph0" class="graph" transform="scale(1 1) rotate(0) translate(4 242.8)">
<title>dependencies</title>
<polygon fill="white" stroke="transparent" points="-4,4 -4,-242.8 868,-242.8 868,4 -4,4"/>
<text text-anchor="middle" x="432" y="-8.2" font-family="sans-serif" font-size="14.00">dependencies</text>
<g id="clust7" class="cluster">
<title>cluster_AppModule</title>
<polygon fill="none" stroke="black" stroke-dasharray="1,5" points="8,-32.8 8,-157.8 382,-157.8 382,-32.8 8,-32.8"/>
</g>
<g id="clust9" class="cluster">
<title>cluster_AppModule_imports</title>
<polygon fill="none" stroke="black" points="16,-40.8 16,-92.8 374,-92.8 374,-40.8 16,-40.8"/>
</g>
<g id="clust25" class="cluster">
<title>cluster_UserCoreModule</title>
<polygon fill="none" stroke="black" stroke-dasharray="1,5" points="390,-32.8 390,-230.8 856,-230.8 856,-32.8 390,-32.8"/>
</g>
<g id="clust28" class="cluster">
<title>cluster_UserCoreModule_exports</title>
<polygon fill="none" stroke="black" points="440,-170.8 440,-222.8 792,-222.8 792,-170.8 440,-170.8"/>
</g>
<g id="clust30" class="cluster">
<title>cluster_UserCoreModule_providers</title>
<polygon fill="none" stroke="black" points="398,-40.8 398,-92.8 848,-92.8 848,-40.8 398,-40.8"/>
</g>
<!-- AppConfigModule -->
<g id="node1" class="node">
<title>AppConfigModule</title>
<polygon fill="#8dd3c7" stroke="black" points="366.05,-84.8 363.05,-88.8 342.05,-88.8 339.05,-84.8 243.95,-84.8 243.95,-48.8 366.05,-48.8 366.05,-84.8"/>
<text text-anchor="middle" x="305" y="-62.6" font-family="Times,serif" font-size="14.00">AppConfigModule</text>
</g>
<!-- AppModule -->
<g id="node4" class="node">
<title>AppModule</title>
<polygon fill="#8dd3c7" stroke="black" points="223.66,-149.8 220.66,-153.8 199.66,-153.8 196.66,-149.8 140.34,-149.8 140.34,-113.8 223.66,-113.8 223.66,-149.8"/>
<text text-anchor="middle" x="182" y="-127.6" font-family="Times,serif" font-size="14.00">AppModule</text>
</g>
<!-- AppConfigModule&#45;&gt;AppModule -->
<g id="edge1" class="edge">
<title>AppConfigModule&#45;&gt;AppModule</title>
<path fill="none" stroke="black" d="M305,-85.08C305,-106.12 305,-137.8 305,-137.8 305,-137.8 233.99,-137.8 233.99,-137.8"/>
<polygon fill="black" stroke="black" points="233.99,-134.3 223.99,-137.8 233.99,-141.3 233.99,-134.3"/>
</g>
<!-- CoreModule -->
<g id="node2" class="node">
<title>CoreModule</title>
<polygon fill="#8dd3c7" stroke="black" points="225.27,-84.8 222.27,-88.8 201.27,-88.8 198.27,-84.8 138.73,-84.8 138.73,-48.8 225.27,-48.8 225.27,-84.8"/>
<text text-anchor="middle" x="182" y="-62.6" font-family="Times,serif" font-size="14.00">CoreModule</text>
</g>
<!-- CoreModule&#45;&gt;AppModule -->
<g id="edge2" class="edge">
<title>CoreModule&#45;&gt;AppModule</title>
<path fill="none" stroke="black" d="M182,-84.91C182,-84.91 182,-103.79 182,-103.79"/>
<polygon fill="black" stroke="black" points="178.5,-103.79 182,-113.79 185.5,-103.79 178.5,-103.79"/>
</g>
<!-- HealthModule -->
<g id="node3" class="node">
<title>HealthModule</title>
<polygon fill="#8dd3c7" stroke="black" points="120.37,-84.8 117.37,-88.8 96.37,-88.8 93.37,-84.8 23.63,-84.8 23.63,-48.8 120.37,-48.8 120.37,-84.8"/>
<text text-anchor="middle" x="72" y="-62.6" font-family="Times,serif" font-size="14.00">HealthModule</text>
</g>
<!-- HealthModule&#45;&gt;AppModule -->
<g id="edge3" class="edge">
<title>HealthModule&#45;&gt;AppModule</title>
<path fill="none" stroke="black" d="M72,-84.91C72,-104.14 72,-131.8 72,-131.8 72,-131.8 130.1,-131.8 130.1,-131.8"/>
<polygon fill="black" stroke="black" points="130.1,-135.3 140.1,-131.8 130.1,-128.3 130.1,-135.3"/>
</g>
<!-- PermissionService  -->
<g id="node5" class="node">
<title>PermissionService </title>
<polygon fill="#fb8072" stroke="black" points="783.71,-214.8 660.29,-214.8 660.29,-178.8 783.71,-178.8 783.71,-214.8"/>
<text text-anchor="middle" x="722" y="-192.6" font-family="Times,serif" font-size="14.00">PermissionService </text>
</g>
<!-- RoleService  -->
<g id="node6" class="node">
<title>RoleService </title>
<polygon fill="#fb8072" stroke="black" points="641.92,-214.8 554.08,-214.8 554.08,-178.8 641.92,-178.8 641.92,-214.8"/>
<text text-anchor="middle" x="598" y="-192.6" font-family="Times,serif" font-size="14.00">RoleService </text>
</g>
<!-- UserService  -->
<g id="node7" class="node">
<title>UserService </title>
<polygon fill="#fb8072" stroke="black" points="535.91,-214.8 448.09,-214.8 448.09,-178.8 535.91,-178.8 535.91,-214.8"/>
<text text-anchor="middle" x="492" y="-192.6" font-family="Times,serif" font-size="14.00">UserService </text>
</g>
<!-- UserCoreModule -->
<g id="node8" class="node">
<title>UserCoreModule</title>
<polygon fill="#8dd3c7" stroke="black" points="654.7,-149.8 651.7,-153.8 630.7,-153.8 627.7,-149.8 541.3,-149.8 541.3,-113.8 654.7,-113.8 654.7,-149.8"/>
<text text-anchor="middle" x="598" y="-127.6" font-family="Times,serif" font-size="14.00">UserCoreModule</text>
</g>
<!-- UserCoreModule&#45;&gt;PermissionService  -->
<g id="edge4" class="edge">
<title>UserCoreModule&#45;&gt;PermissionService </title>
<path fill="none" stroke="black" stroke-dasharray="5,2" d="M648.28,-149.91C648.28,-169.14 648.28,-196.8 648.28,-196.8 648.28,-196.8 650.12,-196.8 650.12,-196.8"/>
<polygon fill="black" stroke="black" points="650.12,-200.3 660.12,-196.8 650.12,-193.3 650.12,-200.3"/>
</g>
<!-- UserCoreModule&#45;&gt;RoleService  -->
<g id="edge5" class="edge">
<title>UserCoreModule&#45;&gt;RoleService </title>
<path fill="none" stroke="black" stroke-dasharray="5,2" d="M598,-149.91C598,-149.91 598,-168.79 598,-168.79"/>
<polygon fill="black" stroke="black" points="594.5,-168.79 598,-178.79 601.5,-168.79 594.5,-168.79"/>
</g>
<!-- UserCoreModule&#45;&gt;UserService  -->
<g id="edge6" class="edge">
<title>UserCoreModule&#45;&gt;UserService </title>
<path fill="none" stroke="black" stroke-dasharray="5,2" d="M547.72,-149.91C547.72,-169.14 547.72,-196.8 547.72,-196.8 547.72,-196.8 546.17,-196.8 546.17,-196.8"/>
<polygon fill="black" stroke="black" points="546.17,-193.3 536.17,-196.8 546.17,-200.3 546.17,-193.3"/>
</g>
<!-- PermissionService -->
<g id="node9" class="node">
<title>PermissionService</title>
<ellipse fill="#fdb462" stroke="black" cx="757" cy="-66.8" rx="82.83" ry="18"/>
<text text-anchor="middle" x="757" y="-62.6" font-family="Times,serif" font-size="14.00">PermissionService</text>
</g>
<!-- PermissionService&#45;&gt;UserCoreModule -->
<g id="edge7" class="edge">
<title>PermissionService&#45;&gt;UserCoreModule</title>
<path fill="none" stroke="black" d="M728.97,-83.88C728.97,-103.14 728.97,-131.8 728.97,-131.8 728.97,-131.8 664.68,-131.8 664.68,-131.8"/>
<polygon fill="black" stroke="black" points="664.68,-128.3 654.68,-131.8 664.68,-135.3 664.68,-128.3"/>
</g>
<!-- RoleService -->
<g id="node10" class="node">
<title>RoleService</title>
<ellipse fill="#fdb462" stroke="black" cx="598" cy="-66.8" rx="58.46" ry="18"/>
<text text-anchor="middle" x="598" y="-62.6" font-family="Times,serif" font-size="14.00">RoleService</text>
</g>
<!-- RoleService&#45;&gt;UserCoreModule -->
<g id="edge8" class="edge">
<title>RoleService&#45;&gt;UserCoreModule</title>
<path fill="none" stroke="black" d="M598,-84.91C598,-84.91 598,-103.79 598,-103.79"/>
<polygon fill="black" stroke="black" points="594.5,-103.79 598,-113.79 601.5,-103.79 594.5,-103.79"/>
</g>
<!-- UserService -->
<g id="node11" class="node">
<title>UserService</title>
<ellipse fill="#fdb462" stroke="black" cx="464" cy="-66.8" rx="58.46" ry="18"/>
<text text-anchor="middle" x="464" y="-62.6" font-family="Times,serif" font-size="14.00">UserService</text>
</g>
<!-- UserService&#45;&gt;UserCoreModule -->
<g id="edge9" class="edge">
<title>UserService&#45;&gt;UserCoreModule</title>
<path fill="none" stroke="black" d="M485.14,-83.87C485.14,-101.29 485.14,-125.8 485.14,-125.8 485.14,-125.8 531.24,-125.8 531.24,-125.8"/>
<polygon fill="black" stroke="black" points="531.24,-129.3 541.24,-125.8 531.24,-122.3 531.24,-129.3"/>
</g>
</g>
</svg>
