<?xml version="1.0" encoding="UTF-8" standalone="no"?>
<!DOCTYPE svg PUBLIC "-//W3C//DTD SVG 1.1//EN"
 "http://www.w3.org/Graphics/SVG/1.1/DTD/svg11.dtd">
<!-- Generated by graphviz version 5.0.0 (20220707.1540)
 -->
<!-- Title: dependencies Pages: 1 -->
<svg width="757pt" height="247pt"
 viewBox="0.00 0.00 757.00 246.80" xmlns="http://www.w3.org/2000/svg" xmlns:xlink="http://www.w3.org/1999/xlink">
<g id="graph0" class="graph" transform="scale(1 1) rotate(0) translate(4 242.8)">
<title>dependencies</title>
<polygon fill="white" stroke="transparent" points="-4,4 -4,-242.8 753,-242.8 753,4 -4,4"/>
<text text-anchor="middle" x="374.5" y="-8.2" font-family="sans-serif" font-size="14.00">dependencies</text>
<g id="clust7" class="cluster">
<title>cluster_AppModule</title>
<polygon fill="none" stroke="black" stroke-dasharray="1,5" points="8,-32.8 8,-157.8 267,-157.8 267,-32.8 8,-32.8"/>
</g>
<g id="clust9" class="cluster">
<title>cluster_AppModule_imports</title>
<polygon fill="none" stroke="black" points="16,-40.8 16,-92.8 259,-92.8 259,-40.8 16,-40.8"/>
</g>
<g id="clust19" class="cluster">
<title>cluster_UserModule</title>
<polygon fill="none" stroke="black" stroke-dasharray="1,5" points="275,-32.8 275,-230.8 741,-230.8 741,-32.8 275,-32.8"/>
</g>
<g id="clust22" class="cluster">
<title>cluster_UserModule_exports</title>
<polygon fill="none" stroke="black" points="325,-170.8 325,-222.8 677,-222.8 677,-170.8 325,-170.8"/>
</g>
<g id="clust24" class="cluster">
<title>cluster_UserModule_providers</title>
<polygon fill="none" stroke="black" points="283,-40.8 283,-92.8 733,-92.8 733,-40.8 283,-40.8"/>
</g>
<!-- AppConfigModule -->
<g id="node1" class="node">
<title>AppConfigModule</title>
<polygon fill="#8dd3c7" stroke="black" points="251.05,-84.8 248.05,-88.8 227.05,-88.8 224.05,-84.8 128.95,-84.8 128.95,-48.8 251.05,-48.8 251.05,-84.8"/>
<text text-anchor="middle" x="190" y="-62.6" font-family="Times,serif" font-size="14.00">AppConfigModule</text>
</g>
<!-- AppModule -->
<g id="node3" class="node">
<title>AppModule</title>
<polygon fill="#8dd3c7" stroke="black" points="169.66,-149.8 166.66,-153.8 145.66,-153.8 142.66,-149.8 86.34,-149.8 86.34,-113.8 169.66,-113.8 169.66,-149.8"/>
<text text-anchor="middle" x="128" y="-127.6" font-family="Times,serif" font-size="14.00">AppModule</text>
</g>
<!-- AppConfigModule&#45;&gt;AppModule -->
<g id="edge1" class="edge">
<title>AppConfigModule&#45;&gt;AppModule</title>
<path fill="none" stroke="black" d="M149.28,-84.91C149.28,-84.91 149.28,-103.79 149.28,-103.79"/>
<polygon fill="black" stroke="black" points="145.78,-103.79 149.28,-113.79 152.78,-103.79 145.78,-103.79"/>
</g>
<!-- CoreModule -->
<g id="node2" class="node">
<title>CoreModule</title>
<polygon fill="#8dd3c7" stroke="black" points="110.27,-84.8 107.27,-88.8 86.27,-88.8 83.27,-84.8 23.73,-84.8 23.73,-48.8 110.27,-48.8 110.27,-84.8"/>
<text text-anchor="middle" x="67" y="-62.6" font-family="Times,serif" font-size="14.00">CoreModule</text>
</g>
<!-- CoreModule&#45;&gt;AppModule -->
<g id="edge2" class="edge">
<title>CoreModule&#45;&gt;AppModule</title>
<path fill="none" stroke="black" d="M98.28,-84.91C98.28,-84.91 98.28,-103.79 98.28,-103.79"/>
<polygon fill="black" stroke="black" points="94.78,-103.79 98.28,-113.79 101.78,-103.79 94.78,-103.79"/>
</g>
<!-- PermissionService  -->
<g id="node4" class="node">
<title>PermissionService </title>
<polygon fill="#fb8072" stroke="black" points="668.71,-214.8 545.29,-214.8 545.29,-178.8 668.71,-178.8 668.71,-214.8"/>
<text text-anchor="middle" x="607" y="-192.6" font-family="Times,serif" font-size="14.00">PermissionService </text>
</g>
<!-- RoleService  -->
<g id="node5" class="node">
<title>RoleService </title>
<polygon fill="#fb8072" stroke="black" points="526.92,-214.8 439.08,-214.8 439.08,-178.8 526.92,-178.8 526.92,-214.8"/>
<text text-anchor="middle" x="483" y="-192.6" font-family="Times,serif" font-size="14.00">RoleService </text>
</g>
<!-- UserService  -->
<g id="node6" class="node">
<title>UserService </title>
<polygon fill="#fb8072" stroke="black" points="420.91,-214.8 333.09,-214.8 333.09,-178.8 420.91,-178.8 420.91,-214.8"/>
<text text-anchor="middle" x="377" y="-192.6" font-family="Times,serif" font-size="14.00">UserService </text>
</g>
<!-- UserModule -->
<g id="node7" class="node">
<title>UserModule</title>
<polygon fill="#8dd3c7" stroke="black" points="525.99,-149.8 522.99,-153.8 501.99,-153.8 498.99,-149.8 440.01,-149.8 440.01,-113.8 525.99,-113.8 525.99,-149.8"/>
<text text-anchor="middle" x="483" y="-127.6" font-family="Times,serif" font-size="14.00">UserModule</text>
</g>
<!-- UserModule&#45;&gt;PermissionService  -->
<g id="edge3" class="edge">
<title>UserModule&#45;&gt;PermissionService </title>
<path fill="none" stroke="black" stroke-dasharray="5,2" d="M526.38,-137.8C540.27,-137.8 552.11,-137.8 552.11,-137.8 552.11,-137.8 552.11,-168.78 552.11,-168.78"/>
<polygon fill="black" stroke="black" points="548.62,-168.78 552.11,-178.78 555.62,-168.78 548.62,-168.78"/>
</g>
<!-- UserModule&#45;&gt;RoleService  -->
<g id="edge4" class="edge">
<title>UserModule&#45;&gt;RoleService </title>
<path fill="none" stroke="black" stroke-dasharray="5,2" d="M483,-149.91C483,-149.91 483,-168.79 483,-168.79"/>
<polygon fill="black" stroke="black" points="479.5,-168.79 483,-178.79 486.5,-168.79 479.5,-168.79"/>
</g>
<!-- UserModule&#45;&gt;UserService  -->
<g id="edge5" class="edge">
<title>UserModule&#45;&gt;UserService </title>
<path fill="none" stroke="black" stroke-dasharray="5,2" d="M439.75,-137.8C425.91,-137.8 414.09,-137.8 414.09,-137.8 414.09,-137.8 414.09,-168.78 414.09,-168.78"/>
<polygon fill="black" stroke="black" points="410.59,-168.78 414.09,-178.78 417.59,-168.78 410.59,-168.78"/>
</g>
<!-- PermissionService -->
<g id="node8" class="node">
<title>PermissionService</title>
<ellipse fill="#fdb462" stroke="black" cx="642" cy="-66.8" rx="82.83" ry="18"/>
<text text-anchor="middle" x="642" y="-62.6" font-family="Times,serif" font-size="14.00">PermissionService</text>
</g>
<!-- PermissionService&#45;&gt;UserModule -->
<g id="edge6" class="edge">
<title>PermissionService&#45;&gt;UserModule</title>
<path fill="none" stroke="black" d="M613.97,-83.87C613.97,-101.29 613.97,-125.8 613.97,-125.8 613.97,-125.8 536.25,-125.8 536.25,-125.8"/>
<polygon fill="black" stroke="black" points="536.25,-122.3 526.25,-125.8 536.25,-129.3 536.25,-122.3"/>
</g>
<!-- RoleService -->
<g id="node9" class="node">
<title>RoleService</title>
<ellipse fill="#fdb462" stroke="black" cx="483" cy="-66.8" rx="58.46" ry="18"/>
<text text-anchor="middle" x="483" y="-62.6" font-family="Times,serif" font-size="14.00">RoleService</text>
</g>
<!-- RoleService&#45;&gt;UserModule -->
<g id="edge7" class="edge">
<title>RoleService&#45;&gt;UserModule</title>
<path fill="none" stroke="black" d="M483,-84.91C483,-84.91 483,-103.79 483,-103.79"/>
<polygon fill="black" stroke="black" points="479.5,-103.79 483,-113.79 486.5,-103.79 479.5,-103.79"/>
</g>
<!-- UserService -->
<g id="node10" class="node">
<title>UserService</title>
<ellipse fill="#fdb462" stroke="black" cx="349" cy="-66.8" rx="58.46" ry="18"/>
<text text-anchor="middle" x="349" y="-62.6" font-family="Times,serif" font-size="14.00">UserService</text>
</g>
<!-- UserService&#45;&gt;UserModule -->
<g id="edge8" class="edge">
<title>UserService&#45;&gt;UserModule</title>
<path fill="none" stroke="black" d="M370.14,-83.87C370.14,-101.29 370.14,-125.8 370.14,-125.8 370.14,-125.8 430.01,-125.8 430.01,-125.8"/>
<polygon fill="black" stroke="black" points="430.01,-129.3 440.01,-125.8 430.01,-122.3 430.01,-129.3"/>
</g>
</g>
</svg>
